<svg xmlns="http://www.w3.org/2000/svg" width="64" height="64" fill="none" viewBox="0 0 64 64"><path fill="url(#paint0_linear_22728_7169)" d="M40.3522 20.389C41.0842 21.121 42.2702 21.123 43.0022 20.389L45.6102 17.781C46.3412 17.049 46.3392 15.863 45.6102 15.13L39.0272 8.549C38.2972 7.817 37.1112 7.817 36.3792 8.549L33.7702 11.157C33.0402 11.889 33.0402 13.075 33.7702 13.805L40.3522 20.389Z"/><path fill="url(#paint1_linear_22728_7169)" d="M24.766 36.2672C25.497 36.9962 26.683 36.9962 27.414 36.2672L30.023 33.6572C30.755 32.9272 30.755 31.7402 30.023 31.0082L23.44 24.4252C22.709 23.6952 21.523 23.6932 20.791 24.4252L18.183 27.0332C17.451 27.7652 17.453 28.9512 18.183 29.6832L24.766 36.2672Z"/><path fill="url(#paint2_linear_22728_7169)" d="M54.6481 36.8931L52.0011 34.2431C51.2671 33.5131 50.0841 33.5131 49.3531 34.2431L48.1921 35.4031L36.9871 24.1961L39.4141 21.7681L32.6811 15.0371L30.2531 17.4651L27.1611 20.5551L24.7871 22.9291L31.5191 29.6621L33.8961 27.2891L45.0991 38.4941L44.0511 39.5431C43.3191 40.2721 43.3171 41.4591 44.0511 42.1911L46.6981 44.8391C47.4321 45.5731 48.6171 45.5731 49.3481 44.8391L54.6471 39.5421C55.3801 38.8091 55.3801 37.6251 54.6481 36.8931Z"/><path fill="url(#paint3_linear_22728_7169)" d="M35.077 44.9425C35.077 43.7435 34.105 42.7695 32.904 42.7695H15.936C14.736 42.7695 13.763 43.7435 13.763 44.9425V48.4695H9V55.8585H39.558V48.4695H35.077V44.9425Z"/><defs><linearGradient id="paint0_linear_22728_7169" x1="39.6902" x2="39.6902" y1="8" y2="20.9388" gradientUnits="userSpaceOnUse"><stop stop-color="#EF8080"/><stop offset="1" stop-color="#F0145A"/></linearGradient><linearGradient id="paint1_linear_22728_7169" x1="24.1034" x2="24.1034" y1="23.877" y2="36.814" gradientUnits="userSpaceOnUse"><stop stop-color="#EF8080"/><stop offset="1" stop-color="#F0145A"/></linearGradient><linearGradient id="paint2_linear_22728_7169" x1="39.992" x2="39.992" y1="15.0371" y2="45.3896" gradientUnits="userSpaceOnUse"><stop stop-color="#EF8080"/><stop offset="1" stop-color="#F0145A"/></linearGradient><linearGradient id="paint3_linear_22728_7169" x1="24.279" x2="24.279" y1="42.7695" y2="55.8585" gradientUnits="userSpaceOnUse"><stop stop-color="#EF8080"/><stop offset="1" stop-color="#F0145A"/></linearGradient></defs></svg>