<svg xmlns="http://www.w3.org/2000/svg" width="64" height="64" fill="none" viewBox="0 0 64 64"><path fill="url(#paint0_linear_22728_7137)" fill-rule="evenodd" d="M53.4512 35.0762V52.3713C53.4512 55.4647 51.0269 57.9997 48.0631 57.9997H15.9701C13.0063 57.9997 10.582 55.4647 10.582 52.3713V35.0762H27.2481V42.587L32.0166 45.7204L36.7851 42.587V35.0762H53.4512Z" clip-rule="evenodd"/><path fill="url(#paint1_linear_22728_7137)" fill-rule="evenodd" d="M28.9185 35.0762V41.6847L32.0166 43.7202L35.1146 41.6847V35.0762H28.9185Z" clip-rule="evenodd"/><path fill="url(#paint2_linear_22728_7137)" fill-rule="evenodd" d="M12.0732 15.1426H51.9597C53.8421 15.1426 55.3805 16.8507 55.3805 18.938V29.1912C55.3805 31.2786 53.8421 32.9867 51.9597 32.9867H36.3137H27.7192H12.0732C10.1908 32.9867 8.65234 31.2786 8.65234 29.1912V18.938C8.65234 16.8507 10.1908 15.1426 12.0732 15.1426Z" clip-rule="evenodd"/><path fill="url(#paint3_linear_22728_7137)" fill-rule="evenodd" d="M23.7117 5.95508H40.3213C41.8644 5.95508 43.1272 7.21788 43.1272 8.76103V13.1384H39.5697V10.5516C39.5697 9.8542 38.9996 9.2817 38.3022 9.2817H25.7308C25.0334 9.2817 24.4633 9.8542 24.4633 10.5516V13.1384H20.9058V8.76103C20.9058 7.21788 22.1686 5.95508 23.7117 5.95508Z" clip-rule="evenodd"/><defs><linearGradient id="paint0_linear_22728_7137" x1="32.0166" x2="32.0166" y1="35.0762" y2="57.9997" gradientUnits="userSpaceOnUse"><stop stop-color="#EF8080"/><stop offset="1" stop-color="#F0145A"/></linearGradient><linearGradient id="paint1_linear_22728_7137" x1="32.0166" x2="32.0166" y1="35.0762" y2="43.7202" gradientUnits="userSpaceOnUse"><stop stop-color="#EF8080"/><stop offset="1" stop-color="#F0145A"/></linearGradient><linearGradient id="paint2_linear_22728_7137" x1="32.0164" x2="32.0164" y1="15.1426" y2="32.9867" gradientUnits="userSpaceOnUse"><stop stop-color="#EF8080"/><stop offset="1" stop-color="#F0145A"/></linearGradient><linearGradient id="paint3_linear_22728_7137" x1="32.0165" x2="32.0165" y1="5.95508" y2="13.1384" gradientUnits="userSpaceOnUse"><stop stop-color="#EF8080"/><stop offset="1" stop-color="#F0145A"/></linearGradient></defs></svg>