<svg xmlns="http://www.w3.org/2000/svg" width="64" height="64" fill="none" viewBox="0 0 64 64"><path fill="black" d="M42.0059 56H23.0059V62H42.0059V56Z"/><path fill="url(#paint0_linear_22728_7167)" d="M42.0059 56H23.0059V62H42.0059V56Z"/><path fill="black" d="M15.1728 2.45168L1.73779 15.8867L5.27333 19.4223L18.7084 5.98722L15.1728 2.45168Z"/><path fill="url(#paint1_linear_22728_7167)" d="M15.1728 2.45168L1.73779 15.8867L5.27333 19.4223L18.7084 5.98722L15.1728 2.45168Z"/><path fill="black" d="M49.1127 2.3219L45.5771 5.85742L59.0122 19.2925L62.5477 15.757L49.1127 2.3219Z"/><path fill="url(#paint2_linear_22728_7167)" d="M49.1127 2.3219L45.5771 5.85742L59.0122 19.2925L62.5477 15.757L49.1127 2.3219Z"/><path fill="black" d="M44.5564 9.70648L41.8651 9.59241C41.089 9.48286 40.2981 9.55517 39.5548 9.80362C38.8115 10.0521 38.1361 10.4699 37.5819 11.024L32.0775 16.5285L26.3239 10.775C25.8244 10.2869 25.2011 9.94433 24.5214 9.78417C23.8416 9.624 23.131 9.6523 22.4661 9.86603C21.8388 10.0568 21.1715 10.0735 20.5355 9.91444C19.8995 9.75537 19.3186 9.42646 18.8551 8.96288L18.0012 8.109L7.39453 18.7156L9.12253 20.4436L9.00845 23.1348C8.89891 23.9108 8.97122 24.7017 9.21966 25.445C9.46811 26.1884 9.8859 26.8638 10.4401 27.418L20.0525 37.0304C20.181 35.7686 20.7856 34.6032 21.7432 33.7715L18.7482 30.7765L19.4553 30.0695L22.5836 33.1977C23.027 32.9452 23.5068 32.7629 24.0059 32.6571V28.9632L22.2838 27.241L22.9908 26.5339L24.0059 27.5489V22.1991C23.9948 21.3148 24.3086 20.4572 24.8879 19.789C25.4672 19.1208 26.2716 18.6885 27.1485 18.5741C27.4792 18.542 27.8128 18.5571 28.1393 18.6189L26.9098 17.3894L27.6169 16.6823L29.4131 18.4785C29.7312 17.8621 30.2233 17.3527 30.8283 17.0135C31.4333 16.6742 32.1246 16.5201 32.8165 16.5702C33.6513 16.6677 34.4258 17.0542 35.0057 17.6628C35.5855 18.2713 35.9342 19.0636 35.9913 19.9022C36.5596 19.632 37.1894 19.5175 37.8165 19.5702C38.7075 19.6768 39.5273 20.1107 40.1166 20.7875C40.7059 21.4644 41.0229 22.336 41.0059 23.2333V26.6571C41.916 26.8472 42.7551 27.287 43.4292 27.9274C44.1032 28.5677 44.5855 29.3832 44.822 30.2823L47.6105 27.4938L48.3176 28.2009L45.0023 31.5162C45.0024 31.5299 45.0059 31.5427 45.0059 31.5565V34.8766C45.9043 34.7826 46.7437 34.3844 47.3848 33.7481L54.225 26.908C54.7131 26.4084 55.0556 25.7852 55.2158 25.1054C55.3759 24.4256 55.3476 23.715 55.1339 23.0501C54.9431 22.4228 54.9264 21.7555 55.0855 21.1195C55.2445 20.4835 55.5735 19.9026 56.0371 19.439L56.8909 18.5851L46.2844 7.97852L44.5564 9.70648Z"/><path fill="url(#paint3_linear_22728_7167)" d="M44.5564 9.70648L41.8651 9.59241C41.089 9.48286 40.2981 9.55517 39.5548 9.80362C38.8115 10.0521 38.1361 10.4699 37.5819 11.024L32.0775 16.5285L26.3239 10.775C25.8244 10.2869 25.2011 9.94433 24.5214 9.78417C23.8416 9.624 23.131 9.6523 22.4661 9.86603C21.8388 10.0568 21.1715 10.0735 20.5355 9.91444C19.8995 9.75537 19.3186 9.42646 18.8551 8.96288L18.0012 8.109L7.39453 18.7156L9.12253 20.4436L9.00845 23.1348C8.89891 23.9108 8.97122 24.7017 9.21966 25.445C9.46811 26.1884 9.8859 26.8638 10.4401 27.418L20.0525 37.0304C20.181 35.7686 20.7856 34.6032 21.7432 33.7715L18.7482 30.7765L19.4553 30.0695L22.5836 33.1977C23.027 32.9452 23.5068 32.7629 24.0059 32.6571V28.9632L22.2838 27.241L22.9908 26.5339L24.0059 27.5489V22.1991C23.9948 21.3148 24.3086 20.4572 24.8879 19.789C25.4672 19.1208 26.2716 18.6885 27.1485 18.5741C27.4792 18.542 27.8128 18.5571 28.1393 18.6189L26.9098 17.3894L27.6169 16.6823L29.4131 18.4785C29.7312 17.8621 30.2233 17.3527 30.8283 17.0135C31.4333 16.6742 32.1246 16.5201 32.8165 16.5702C33.6513 16.6677 34.4258 17.0542 35.0057 17.6628C35.5855 18.2713 35.9342 19.0636 35.9913 19.9022C36.5596 19.632 37.1894 19.5175 37.8165 19.5702C38.7075 19.6768 39.5273 20.1107 40.1166 20.7875C40.7059 21.4644 41.0229 22.336 41.0059 23.2333V26.6571C41.916 26.8472 42.7551 27.287 43.4292 27.9274C44.1032 28.5677 44.5855 29.3832 44.822 30.2823L47.6105 27.4938L48.3176 28.2009L45.0023 31.5162C45.0024 31.5299 45.0059 31.5427 45.0059 31.5565V34.8766C45.9043 34.7826 46.7437 34.3844 47.3848 33.7481L54.225 26.908C54.7131 26.4084 55.0556 25.7852 55.2158 25.1054C55.3759 24.4256 55.3476 23.715 55.1339 23.0501C54.9431 22.4228 54.9264 21.7555 55.0855 21.1195C55.2445 20.4835 55.5735 19.9026 56.0371 19.439L56.8909 18.5851L46.2844 7.97852L44.5564 9.70648Z"/><path fill="black" d="M29.8802 21.6901C29.8042 21.0405 29.4757 20.4468 28.9657 20.0373C28.4557 19.6278 27.8051 19.4353 27.1544 19.5015C26.5232 19.5886 25.946 19.9046 25.5326 20.3894C25.1192 20.8742 24.8984 21.4941 24.9121 22.1311V33.4885C23.8512 33.4885 22.8338 33.9099 22.0837 34.66C21.3335 35.4102 20.9121 36.4276 20.9121 37.4885V47.1619C20.9202 47.8603 21.1187 48.5432 21.4861 49.1371C21.8536 49.7311 22.376 50.2135 22.9973 50.5325C23.5757 50.8412 24.0594 51.3012 24.3967 51.8634C24.734 52.4256 24.9121 53.0689 24.9121 53.7245V54.9321H39.9121V52.4885L41.8958 50.6661C42.522 50.1948 43.0301 49.5844 43.38 48.8831C43.73 48.1818 43.9121 47.4088 43.9121 46.6251V31.4885C43.9121 30.4276 43.4907 29.4102 42.7405 28.66C41.9904 27.9099 40.973 27.4885 39.9121 27.4885V23.1659C39.9291 22.5187 39.706 21.888 39.2857 21.3955C38.8655 20.903 38.2778 20.5834 37.636 20.4983C37.006 20.4426 36.3785 20.6285 35.8804 21.0183C35.3824 21.408 35.0511 21.9725 34.9537 22.5974H35.4121V38.0407H34.4121V22.5974H34.9121V20.1659C34.9291 19.5187 34.706 18.888 34.2857 18.3955C33.8655 17.903 33.2778 17.5834 32.636 17.4983C32.2902 17.4673 31.9417 17.5086 31.6128 17.6196C31.2838 17.7306 30.9816 17.909 30.7254 18.1432C30.4691 18.3775 30.2645 18.6625 30.1245 18.9802C29.9845 19.2979 29.9121 19.6413 29.9121 19.9885V21.6901H30.4121V37.1335H29.4121V21.6901H29.8802ZM25.3113 42.0407H24.3113V34.0407H25.3113V42.0407ZM39.4121 27.799H40.4121V38.2423H39.4121V27.799Z"/><path fill="url(#paint4_linear_22728_7167)" d="M29.8802 21.6901C29.8042 21.0405 29.4757 20.4468 28.9657 20.0373C28.4557 19.6278 27.8051 19.4353 27.1544 19.5015C26.5232 19.5886 25.946 19.9046 25.5326 20.3894C25.1192 20.8742 24.8984 21.4941 24.9121 22.1311V33.4885C23.8512 33.4885 22.8338 33.9099 22.0837 34.66C21.3335 35.4102 20.9121 36.4276 20.9121 37.4885V47.1619C20.9202 47.8603 21.1187 48.5432 21.4861 49.1371C21.8536 49.7311 22.376 50.2135 22.9973 50.5325C23.5757 50.8412 24.0594 51.3012 24.3967 51.8634C24.734 52.4256 24.9121 53.0689 24.9121 53.7245V54.9321H39.9121V52.4885L41.8958 50.6661C42.522 50.1948 43.0301 49.5844 43.38 48.8831C43.73 48.1818 43.9121 47.4088 43.9121 46.6251V31.4885C43.9121 30.4276 43.4907 29.4102 42.7405 28.66C41.9904 27.9099 40.973 27.4885 39.9121 27.4885V23.1659C39.9291 22.5187 39.706 21.888 39.2857 21.3955C38.8655 20.903 38.2778 20.5834 37.636 20.4983C37.006 20.4426 36.3785 20.6285 35.8804 21.0183C35.3824 21.408 35.0511 21.9725 34.9537 22.5974H35.4121V38.0407H34.4121V22.5974H34.9121V20.1659C34.9291 19.5187 34.706 18.888 34.2857 18.3955C33.8655 17.903 33.2778 17.5834 32.636 17.4983C32.2902 17.4673 31.9417 17.5086 31.6128 17.6196C31.2838 17.7306 30.9816 17.909 30.7254 18.1432C30.4691 18.3775 30.2645 18.6625 30.1245 18.9802C29.9845 19.2979 29.9121 19.6413 29.9121 19.9885V21.6901H30.4121V37.1335H29.4121V21.6901H29.8802ZM25.3113 42.0407H24.3113V34.0407H25.3113V42.0407ZM39.4121 27.799H40.4121V38.2423H39.4121V27.799Z"/><defs><linearGradient id="paint0_linear_22728_7167" x1="32.5059" x2="32.5059" y1="56" y2="62" gradientUnits="userSpaceOnUse"><stop stop-color="#EF8080"/><stop offset="1" stop-color="#F0145A"/></linearGradient><linearGradient id="paint1_linear_22728_7167" x1="8.45531" x2="11.9909" y1="9.1692" y2="12.7047" gradientUnits="userSpaceOnUse"><stop stop-color="#EF8080"/><stop offset="1" stop-color="#F0145A"/></linearGradient><linearGradient id="paint2_linear_22728_7167" x1="47.3449" x2="60.78" y1="4.08966" y2="17.5247" gradientUnits="userSpaceOnUse"><stop stop-color="#EF8080"/><stop offset="1" stop-color="#F0145A"/></linearGradient><linearGradient id="paint3_linear_22728_7167" x1="32.1427" x2="32.1427" y1="7.97852" y2="37.0304" gradientUnits="userSpaceOnUse"><stop stop-color="#EF8080"/><stop offset="1" stop-color="#F0145A"/></linearGradient><linearGradient id="paint4_linear_22728_7167" x1="32.4121" x2="32.4121" y1="17.4883" y2="54.9321" gradientUnits="userSpaceOnUse"><stop stop-color="#EF8080"/><stop offset="1" stop-color="#F0145A"/></linearGradient></defs></svg>